/* XPM */
static char * C_xpm[] = {
"32 32 252 2",
"  	c #000000",
". 	c #69635A",
"+ 	c #9D9485",
"@ 	c #ACA291",
"# 	c #AEA493",
"$ 	c #ABA191",
"% 	c #8F8779",
"& 	c #4D4A43",
"* 	c #514E47",
"= 	c #B9AE9C",
"- 	c #EEE0C9",
"; 	c #FFE7C5",
"> 	c #FFD9AA",
", 	c #FFCE91",
"' 	c #FFCB8E",
") 	c #FFCC8F",
"! 	c #FFD4A0",
"~ 	c #FEDFB6",
"{ 	c #DECEB5",
"] 	c #9F9586",
"^ 	c #ADA392",
"/ 	c #F8E9D1",
"( 	c #FFF0D7",
"_ 	c #FFE3BD",
": 	c #FF9B00",
"< 	c #FF9300",
"[ 	c #FF8E00",
"} 	c #FF8C00",
"| 	c #FF9000",
"1 	c #FF9600",
"2 	c #FF9E00",
"3 	c #FFAD26",
"4 	c #FFC986",
"5 	c #E9D0AF",
"6 	c #7D7669",
"7 	c #45433E",
"8 	c #D7CAB5",
"9 	c #FFF0D8",
"0 	c #FFF1D9",
"a 	c #FFE6C8",
"b 	c #FF8B00",
"c 	c #FFA600",
"d 	c #FFAE0B",
"e 	c #FCCA91",
"f 	c #AA9D89",
"g 	c #3D3B37",
"h 	c #E0D3BD",
"i 	c #FFF1DB",
"j 	c #FFF3DF",
"k 	c #FFF4E1",
"l 	c #FFD09D",
"m 	c #FF9F00",
"n 	c #FF9400",
"o 	c #FF8F00",
"p 	c #FFA200",
"q 	c #FFAD00",
"r 	c #FFAB00",
"s 	c #FFB86B",
"t 	c #AE9C84",
"u 	c #CCC0AC",
"v 	c #FFF4E2",
"w 	c #FFF7EA",
"x 	c #FFD676",
"y 	c #FFC31C",
"z 	c #FFB400",
"A 	c #FFAC00",
"B 	c #FF9700",
"C 	c #FF9D00",
"D 	c #FF8D00",
"E 	c #FF8A00",
"F 	c #FF8200",
"G 	c #FF9800",
"H 	c #FEB563",
"I 	c #93836F",
"J 	c #948B7D",
"K 	c #FFEACB",
"L 	c #FFF3DE",
"M 	c #FFF6E9",
"N 	c #FFF8EB",
"O 	c #FFECC4",
"P 	c #FFE09D",
"Q 	c #FFC93A",
"R 	c #FFB600",
"S 	c #FFAE00",
"T 	c #FE8200",
"U 	c #FF7600",
"V 	c #F3B26A",
"W 	c #4C463D",
"X 	c #EBDDC4",
"Y 	c #FFCA89",
"Z 	c #FFF0D9",
"` 	c #FFEBC9",
" .	c #FFE6B3",
"..	c #FFD985",
"+.	c #FFC321",
"@.	c #FFB300",
"#.	c #FFAA00",
"$.	c #FF8700",
"%.	c #FD6900",
"&.	c #FF7800",
"*.	c #FFA100",
"=.	c #BE9360",
"-.	c #91897B",
";.	c #FFDAAD",
">.	c #FFB16C",
",.	c #FFC152",
"'.	c #FFC730",
").	c #FFD266",
"!.	c #FFD164",
"~.	c #FFC62E",
"{.	c #FFB800",
"].	c #FFAF00",
"^.	c #FB6400",
"/.	c #FF6100",
"(.	c #FF9500",
"_.	c #F6A745",
":.	c #24201A",
"<.	c #CDC1AD",
"[.	c #FFBD68",
"}.	c #FFCC88",
"|.	c #FFB700",
"1.	c #FFBB00",
"2.	c #FFBA00",
"3.	c #FFB500",
"4.	c #FC6C00",
"5.	c #FD5C00",
"6.	c #FF7E00",
"7.	c #95692D",
"8.	c #EEDABD",
"9.	c #FFA301",
"0.	c #FFAC4F",
"a.	c #FDAA00",
"b.	c #FD7000",
"c.	c #FB5700",
"d.	c #FF6900",
"e.	c #C37D1C",
"f.	c #FFDEB5",
"g.	c #E07000",
"h.	c #FFA400",
"i.	c #FC6D00",
"j.	c #FA5400",
"k.	c #FF6000",
"l.	c #D9890E",
"m.	c #4F4B45",
"n.	c #FFD7A9",
"o.	c #F89C00",
"p.	c #DD5A00",
"q.	c #CC2A09",
"r.	c #CB4C01",
"s.	c #ED8D00",
"t.	c #FB6500",
"u.	c #F95200",
"v.	c #E7920F",
"w.	c #4B4842",
"x.	c #FFD3A2",
"y.	c #FF9200",
"z.	c #EF8500",
"A.	c #C51B06",
"B.	c #C96800",
"C.	c #FF8500",
"D.	c #FA5800",
"E.	c #E7920D",
"F.	c #FED4A7",
"G.	c #FFA300",
"H.	c #EF8A00",
"I.	c #F6A000",
"J.	c #E58000",
"K.	c #FE7500",
"L.	c #FA5500",
"M.	c #D88910",
"N.	c #EBC59C",
"O.	c #FF7F00",
"P.	c #FF8900",
"Q.	c #FFA700",
"R.	c #FF8300",
"S.	c #FB5D00",
"T.	c #FC5800",
"U.	c #FF6C00",
"V.	c #C17B1B",
"W.	c #C7B195",
"X.	c #FFA000",
"Y.	c #FF7500",
"Z.	c #FE7A00",
"`.	c #FF8400",
" +	c #FD6800",
".+	c #FE5D00",
"++	c #925E1C",
"@+	c #878073",
"#+	c #FFB25B",
"$+	c #FF6F00",
"%+	c #FF8800",
"&+	c #FF9A00",
"*+	c #FF9900",
"=+	c #FF8100",
"-+	c #FB5600",
";+	c #F59B04",
">+	c #E5B583",
",+	c #FF6800",
"'+	c #FD6300",
")+	c #FB6100",
"!+	c #FE7E00",
"~+	c #FF7900",
"{+	c #FC6200",
"]+	c #F95300",
"^+	c #FE5E00",
"/+	c #BB771C",
"(+	c #857764",
"_+	c #FFAB45",
":+	c #FF6300",
"<+	c #FE6B00",
"[+	c #FE7400",
"}+	c #FF7D00",
"|+	c #FF8000",
"1+	c #FE6F00",
"2+	c #FF6B00",
"3+	c #F19806",
"4+	c #463426",
"5+	c #C09568",
"6+	c #FA5300",
"7+	c #FA5600",
"8+	c #FEA000",
"9+	c #8C5A20",
"0+	c #D39243",
"a+	c #FF5F00",
"b+	c #FC5900",
"c+	c #FC5A00",
"d+	c #FF7000",
"e+	c #AB6D1C",
"f+	c #C98115",
"g+	c #FF7C00",
"h+	c #FD5B00",
"i+	c #FB9E02",
"j+	c #A3681C",
"k+	c #9B641B",
"l+	c #F29A09",
"m+	c #FF9C00",
"n+	c #FF7400",
"o+	c #FF7200",
"p+	c #E39011",
"q+	c #744C20",
"r+	c #372A21",
"s+	c #AC6E1F",
"t+	c #E3900E",
"u+	c #FA9E02",
"v+	c #D78810",
"w+	c #915F24",
"x+	c #4F3A28",
"y+	c #885820",
"z+	c #A86C20",
"A+	c #AC6E1C",
"B+	c #A1671F",
"C+	c #7E5322",
"                                                                ",
"                                                                ",
"                                                                ",
"                          . + @ # $ % &                         ",
"                    * = - ; > , ' ) ! ~ { ]                     ",
"                  ^ / ( _ : < [ } | 1 2 3 4 5 6                 ",
"              7 8 ( 9 0 a [ } b b b b b | c d e f               ",
"            g h 9 i j k l m n b b b o p q r m m s t             ",
"            u ( i v w v x y z A m B r A C D E F G H I           ",
"          J K 9 L M N O P Q R S q q q B b b b T U : V W         ",
"          X Y Z j `  . ...+.@.S q q q #.| b b $.%.&.*.=.        ",
"        -.;.G >.,.'.).!.~.{.].q q q q q c b b b ^./.(._.:.      ",
"        <.[.} : }.|.1.2.3.].q q q q q q q (.b b 4.5.6.*.7.      ",
"        8.9.b 0.Y S ].].S q q q a.q q q c m b b b.c.d.*.e.      ",
"        f.C b *.q q q q q q q q g.A q q C h.b b i.j.k.2 l.      ",
"      m.n.G b C q q q q q q o.p.q.r.s.r 1 p b E t.u.k.G v.      ",
"      w.x.(.E y.q q q q q q q z.A.B.q *.< C b C.D.u.k.G E.      ",
"        F.(.$.b G.q q q q q q H.I.J.A | n | E K.u.L.k.m M.      ",
"        N.B O.P.D Q.q q q q q q q A B b D b R.S.u.T.U.*.V.      ",
"        W.X.Y.Z.P.D X.A q q q q Q.< b b b `. +u.u..+F *.++      ",
"        @+#+R.$+4.%+b [ B &+*+y.b b b E =+%.u.u.-+k.*+;+        ",
"          >+C ,+'+)+!+$.E E b b b P.`.~+{+u.u.]+^+6.*./+        ",
"          (+_+o :+5.-+<+[+}+|+6.~+1+{+L.u.u.]+.+2+2 3+4+        ",
"            5+*.$.k..+6+u.u.L.7+]+u.u.u.u.j..+d.&+8+9+          ",
"              0+*.} :+a+b+6+u.u.u.u.u.j.c+k.d+: *.e+            ",
"                f+*.&+g+/.k.^+h+h+5.^+k.,+P.X.i+j+              ",
"                  k+l+p m+b 6.n+o+&.R.y.X.*.p+q+                ",
"                    r+s+t+*.*.*.*.*.*.u+v+w+                    ",
"                          x+y+z+A+B+C+                          ",
"                                                                ",
"                                                                ",
"                                                                "};
