/* XPM */
static char * E_xpm[] = {
"32 32 7 1",
" 	c #000000",
".	c #803721",
"+	c #5F210F",
"@	c #98695B",
"#	c #C5ACA5",
"$	c #D8D119",
"%	c #A04E36",
"        ................        ",
"        .++++++++++++++.        ",
"        .+@@@@@++@@@@@+.        ",
"        .+@#@@@++@#@@@+.        ",
"        .+@@@@@++@@@@@+.        ",
"        .+@@@@@++@@@@@+.        ",
"        .+@@@@@++@@@@@+.        ",
"        .++++++++++++++.        ",
"        .+@@@@@++@@@@@+.        ",
"        .+@#@@@++@#@@@+.        ",
"        .+@@@@@++@@@@@+.        ",
"        .+@@@@@++@@@@@+.        ",
"        .+@@@@@++@@@@@+.        ",
"        .++++++++++++++.        ",
"        ................        ",
"        .............$$.        ",
"        .............$$.        ",
"        ................        ",
"        .++++++++++++++.        ",
"        .+............+.        ",
"        .+.%%.........+.        ",
"        .+.%..........+.        ",
"        .+............+.        ",
"        .+............+.        ",
"        .+............+.        ",
"        .+............+.        ",
"        .+............+.        ",
"        .+............+.        ",
"        .+............+.        ",
"        .+............+.        ",
"        .++++++++++++++.        ",
"        ................        "};
