/* XPM */
static char * 1_xpm[] = {
"32 32 2 1",
" 	c #906639",
".	c #5A1010",
"                                ",
" ..............  .............. ",
" ..............  .............. ",
" ..............  .............. ",
" ..............  .............. ",
" ..............  .............. ",
" ..............  .............. ",
"                                ",
"                                ",
".......  ..............  .......",
".......  ..............  .......",
".......  ..............  .......",
".......  ..............  .......",
".......  ..............  .......",
".......  ..............  .......",
"                                ",
"                                ",
" ..............  .............. ",
" ..............  .............. ",
" ..............  .............. ",
" ..............  .............. ",
" ..............  .............. ",
" ..............  .............. ",
"                                ",
"                                ",
".......  ..............  .......",
".......  ..............  .......",
".......  ..............  .......",
".......  ..............  .......",
".......  ..............  .......",
".......  ..............  .......",
"                                "};
