/* XPM */
static char * 1_v2_xpm[] = {
"32 32 2 1",
" 	c #5A1010",
".	c #906639",
"              ..              ..",
"              ..              ..",
"              ..              ..",
"              ..              ..",
"              ..              ..",
"              ..              ..",
"................................",
"................................",
"      ..              ..        ",
"      ..              ..        ",
"      ..              ..        ",
"      ..              ..        ",
"      ..              ..        ",
"      ..              ..        ",
"................................",
"................................",
"              ..              ..",
"              ..              ..",
"              ..              ..",
"              ..              ..",
"              ..              ..",
"              ..              ..",
"................................",
"................................",
"      ..              ..        ",
"      ..              ..        ",
"      ..              ..        ",
"      ..              ..        ",
"      ..              ..        ",
"      ..              ..        ",
"................................",
"................................"};
