/* XPM */
static char * C_xpm[] = {
"32 32 35 1",
" 	c #906639",
".	c #A2784A",
"+	c #B38B60",
"@	c #B99D41",
"#	c #D2C034",
"$	c #E3D627",
"%	c #EEE419",
"&	c #F3EB0C",
"*	c #E6D932",
"=	c #C1A93E",
"-	c #E1D428",
";	c #EFE60E",
">	c #E6D912",
",	c #DECF15",
"'	c #D8C717",
")	c #D5C318",
"!	c #AD8A46",
"~	c #D6C631",
"{	c #EEE40E",
"]	c #E1D314",
"^	c #D7C717",
"/	c #E2D514",
"(	c #EAE010",
"_	c #F0E70E",
":	c #F3EA0C",
"<	c #B69843",
"[	c #DFD12B",
"}	c #E7DC12",
"|	c #DACA16",
"1	c #E5D913",
"2	c #F1E90D",
"3	c #E5D912",
"4	c #DCCD16",
"5	c #EBE110",
"6	c #EDE30F",
"                                ",
" ..............  .............. ",
" .+++..........  .+++.......... ",
" .+........@#$%&&%*#@.......... ",
" .+......=-;>,'))',>;-=........ ",
" ......!~{]^/(_::_(/^]{~!...... ",
" .....<[}|12&&&&&&&&21|}[<..... ",
" ....![345&&&&&44&&&&&543[!.... ",
" ....~}46&&&&&&))&&&&&&64}~.... ",
" ...={|5&&&&&&&))&&&&&&&5|{=... ",
" ...-]1&&&&&&&&))&&&&&&&&1]-... ",
" ..@;^2&&&&&&&&))&&&&&&&&2^;@.. ",
" ..#>/&&&&&&&&&))&&&&&&&&&/>#.. ",
" ..$,(&&&&&&&&&))&&&&&&&&&(,$.. ",
" ..%'_&&&&&&&&&))&&&&&&&&&_'%.. ",
"   &):&&&&&&&&&))&&&&&&&&&:)&   ",
"   &):&&&&&&&&&))&&&&&&&&&:)&   ",
" ..%'_&&&&&&&&&))&&&&&&&&&_'%.. ",
" .+*,(&&&&&&&&&))&&&&&&&&&(,$.. ",
" .+#>/&&&&&&&&&))&&&&&&&&&/>#.. ",
" .+@;^2&&&&&&&&))&&&&&&&&2^;@.. ",
" ...-]1&&&&&&&&))&&&&&&&&1]-... ",
" ...={|5&&&&&&&))&&&&&&&5|{=... ",
" ....~}46&&&&&&))&&&&&&64}~.... ",
" ....![345&&&&&44&&&&&543[!.... ",
" .....<[}|12&&&&&&&&21|}[<..... ",
" ......!~{]^/(_::_(/^]{~!...... ",
" ........=-;>,'))',>;-=........ ",
" ..........@#$%&&%$#@.......... ",
" ..............  .............. ",
" ..............  .............. ",
"                                "};
