/* XPM */
static char * E_xpm[] = {
"32 32 9 1",
" 	c #906639",
".	c #803721",
"+	c #A2784A",
"@	c #5F210F",
"#	c #B38B60",
"$	c #98695B",
"%	c #C5ACA5",
"&	c #D8D119",
"*	c #A04E36",
"        ................        ",
" +++++++.@@@@@@@@@@@@@@.+++++++ ",
" +###+++.@$$$$$@@$$$$$@.+++++++ ",
" +#+++++.@$%$$$@@$%$$$@.+++++++ ",
" +#+++++.@$$$$$@@$$$$$@.+++++++ ",
" +++++++.@$$$$$@@$$$$$@.+++++++ ",
" +++++++.@$$$$$@@$$$$$@.+++++++ ",
" +++++++.@@@@@@@@@@@@@@.+++++++ ",
" +++++++.@$$$$$@@$$$$$@.+++++++ ",
" +++++++.@$%$$$@@$%$$$@.+++++++ ",
" +++++++.@$$$$$@@$$$$$@.+++++++ ",
" +++++++.@$$$$$@@$$$$$@.+++++++ ",
" +++++++.@$$$$$@@$$$$$@.+++++++ ",
" +++++++.@@@@@@@@@@@@@@.+++++++ ",
" +++++++................+++++++ ",
"        .............&&.        ",
"        .............&&.        ",
" +++++++................+++++++ ",
" +###+++.@@@@@@@@@@@@@@.+++++++ ",
" +#+++++.@............@.+++++++ ",
" +#+++++.@.**.........@.+++++++ ",
" +++++++.@.*..........@.+++++++ ",
" +++++++.@............@.+++++++ ",
" +++++++.@............@.+++++++ ",
" +++++++.@............@.+++++++ ",
" +++++++.@............@.+++++++ ",
" +++++++.@............@.+++++++ ",
" +++++++.@............@.+++++++ ",
" +++++++.@............@.+++++++ ",
" +++++++.@............@.+++++++ ",
" +++++++.@@@@@@@@@@@@@@.+++++++ ",
"        ................        "};
