/* XPM */
static char * N_xpm[] = {
"32 32 22 1",
" 	c #906639",
".	c #A2784A",
"+	c #B38B60",
"@	c #D92411",
"#	c #D96811",
"$	c #000000",
"%	c #9A7246",
"&	c #7D5C37",
"*	c #5D4327",
"=	c #392816",
"-	c #110A04",
";	c #0E0702",
">	c #32210F",
",	c #2B1D0E",
"'	c #9C7447",
")	c #735533",
"!	c #8E6940",
"~	c #573F24",
"{	c #202020",
"]	c #2C1E0F",
"^	c #503A21",
"/	c #40301E",
"                                ",
" ..............  .............. ",
" .+++..........  .+++..@.@..... ",
" .+............  .+.....#.#@@@. ",
" .+............  .+..@#@##..... ",
" ..............  ....@$$.#.#... ",
" .........%&*=-;>*&%.$,@.@..... ",
" .......'),$$$$$$$$,$,...@..... ",
" ......!~$$${$$$$$$$$]!..@..... ",
" .....!^$${{$$$$$$$$$$^!....... ",
" ....'~$${$$$$$$$$$$$$$~'...... ",
" ....)$$${$$$$$$$$$$$$$$)...... ",
" ...%,$${$$$$$$$$$$$$$$$,%..... ",
" ...&$${{$$$$$$$$$$$$$$$$&..... ",
" ...*$${$$$$$$$$$$$$$$$$$*..... ",
"    >$${$$$$$$$$$$$$$$$$$>      ",
"    ;$${$$$$$$$$$$$$$$$$$;      ",
" ...-$$$$$$$$$$$$$$$$$$$$-..... ",
" .++/$$$$$$$$$$$$$$$$$$$$=..... ",
" .+.*$$$$$$$$$$$$$$$$$$$$*..... ",
" .+.&$$$$$$$$$$$$$$$$$$$$&..... ",
" ...%,$$$$$$$$$$$$$$$$$$,%..... ",
" ....)$$$$$$$$$$$$$$$$$$)...... ",
" ....'~$$$$$$$$$$$$$$$$~'...... ",
" .....!^$$$$$$$$$$$$$$^!....... ",
" ......!~$$$$$$$$$$$$~!........ ",
" .......'),$$$$$$$$,)'......... ",
" .........%&*=-;>*&%........... ",
" ..............  .............. ",
" ..............  .............. ",
" ..............  .............. ",
"                                "};
