/* XPM */
static char * P_xpm[] = {
"32 32 5 1",
" 	c #906639",
".	c #A2784A",
"+	c #B38B60",
"@	c #000000",
"#	c #EE0505",
"                                ",
" ..............  .............. ",
" .+++..........  .+++.......... ",
" .+............  .+............ ",
" .+.......@@@@@@@@@@@@......... ",
" .........@@@@@@@@@@@@......... ",
" .........@@@@@@@@@@@@......... ",
" .........@@@@@@@@@@@@......... ",
" .........@@@@@@@@@@@@......... ",
" .........@@@@@@@@@@@@......... ",
" .........@@@@@@@@@@@@......... ",
" .........@@@@@@@@@@@@......... ",
" .........@@@@@@@@@@@@......... ",
" .........@@@@@@@@@@@@......... ",
" .........@@@@@@@@@@@@......... ",
"          ############          ",
"          ############          ",
" ......@@@@@@@@@@@@@@@@@@...... ",
" .+++..........  .+++.......... ",
" .+............  .+............ ",
" .+........@@@@@@@@@@.......... ",
" ...........@@.  ..@@.......... ",
" ...........@@.  .............. ",
" ...........@@.@@.............. ",
" ...........@@@@@.............. ",
" ...........@@.@@.............. ",
" ...........@@.  .............. ",
" ...........@@.  ..@@.......... ",
" ..........@@@@@@@@@@.......... ",
" ..............  .............. ",
" ..............  .............. ",
"                                "};
