/* XPM */
static char * 1_xpm[] = {
"32 32 2 1",
" 	c #000000",
".	c #E81111",
"                                ",
"                                ",
"                                ",
"              .....             ",
"             ......             ",
"            .......             ",
"           ........             ",
"          .........             ",
"         .... .....             ",
"         ...  .....             ",
"              .....             ",
"              .....             ",
"              .....             ",
"              .....             ",
"              .....             ",
"              .....             ",
"              .....             ",
"              .....             ",
"              .....             ",
"              .....             ",
"              .....             ",
"              .....             ",
"              .....             ",
"              .....             ",
"              .....             ",
"              .....             ",
"         ..............         ",
"      ....................      ",
"      ....................      ",
"                                ",
"                                ",
"                                "};
