/* XPM */
static char * E_xpm[] = {
"32 32 2 1",
" 	c #000000",
".	c #13EE37",
"                                ",
"                                ",
"                                ",
"                                ",
"        ..............          ",
"        ..............          ",
"       ..............           ",
"       ...                      ",
"       ...                      ",
"       ...                      ",
"       ...                      ",
"       ...                      ",
"       ...                      ",
"       ...                      ",
"       ...                      ",
"       ..............           ",
"       ..............           ",
"       ...                      ",
"       ...                      ",
"       ...                      ",
"       ...                      ",
"       ...                      ",
"       ...                      ",
"       ...                      ",
"       ...                      ",
"       ..............           ",
"        ..............          ",
"        ..............          ",
"                                ",
"                                ",
"                                ",
"                                "};
