/* XPM */
static char * P_xpm[] = {
"32 32 2 1",
" 	c #000000",
".	c #359FE1",
"                                ",
"                                ",
"                                ",
"                                ",
"                                ",
"                                ",
"            ..........          ",
"           ............         ",
"           ............         ",
"           ...      ...         ",
"           ...      ...         ",
"           ...      ...         ",
"           ...      ...         ",
"           ............         ",
"           ............         ",
"           ...........          ",
"           ...                  ",
"           ...                  ",
"           ...                  ",
"           ...                  ",
"           ...                  ",
"           ...                  ",
"           ...                  ",
"           ...                  ",
"           ...                  ",
"                                ",
"                                ",
"                                ",
"                                ",
"                                ",
"                                ",
"                                "};
